<?xml version="1.0" standalone="no"?>
<!DOCTYPE svg PUBLIC "-//W3C//DTD SVG 20010904//EN"
 "http://www.w3.org/TR/2001/REC-SVG-20010904/DTD/svg10.dtd">
<svg version="1.0" xmlns="http://www.w3.org/2000/svg"
 width="736.000000pt" height="736.000000pt" viewBox="0 0 736.000000 736.000000"
 preserveAspectRatio="xMidYMid meet">

<g transform="translate(0.000000,736.000000) scale(0.100000,-0.100000)"
fill="#000000" stroke="none">
<path d="M2695 5878 c-441 -468 -542 -1197 -250 -1803 156 -323 387 -547 678
-659 265 -102 420 -123 1177 -155 337 -15 462 -60 527 -189 26 -52 26 -237 0
-304 -45 -116 -194 -186 -442 -209 -67 -6 -203 -6 -345 -2 l-235 8 -3 221 -2
221 -148 6 c-344 14 -638 115 -889 308 -42 32 -78 57 -80 55 -2 -1 21 -54 51
-117 70 -146 87 -198 93 -284 4 -57 1 -77 -15 -105 -23 -42 -91 -80 -143 -80
-115 0 -183 102 -220 329 -30 187 -38 219 -86 369 -144 453 -429 772 -791 886
-46 14 -88 26 -93 26 -6 0 23 -22 64 -50 78 -52 192 -165 246 -244 48 -70 116
-219 144 -316 57 -197 77 -399 77 -788 0 -247 3 -297 21 -385 51 -251 167
-434 340 -539 84 -51 164 -74 334 -95 125 -16 237 -18 1025 -18 933 -1 1027 3
1179 45 287 80 455 209 569 435 147 295 127 679 -51 957 -49 77 -153 185 -225
233 l-59 39 63 74 c178 213 229 497 139 779 -35 111 -88 196 -180 288 -125
126 -296 206 -523 245 -106 19 -165 20 -818 20 l-704 0 0 -95 c0 -108 6 -105
-92 -48 -131 76 -235 231 -274 408 -33 148 -19 396 32 569 17 59 16 56 5 56
-5 0 -48 -41 -96 -92z m5 -1070 c65 -133 205 -293 340 -387 131 -92 304 -171
459 -211 66 -16 267 -50 300 -50 8 0 11 50 11 167 l0 166 263 -6 c438 -10 507
-30 579 -167 19 -37 23 -60 23 -135 0 -81 -3 -95 -30 -143 -36 -67 -71 -96
-160 -138 -102 -48 -211 -73 -373 -86 -427 -35 -761 76 -1014 335 l-68 69 0
-64 c0 -36 5 -90 11 -122 6 -32 8 -60 5 -63 -8 -9 -110 83 -157 142 -103 128
-164 262 -198 431 -22 112 -38 314 -25 314 5 0 20 -23 34 -52z"/>
<path d="M1586 5554 c96 -157 147 -319 164 -521 28 -337 39 -387 112 -523 22
-41 58 -100 81 -130 46 -61 262 -287 289 -301 20 -11 19 -8 -21 85 -46 105
-78 270 -111 558 -10 97 -28 219 -39 271 -47 225 -142 389 -295 506 -52 41
-203 131 -218 131 -4 0 13 -34 38 -76z"/>
</g>
</svg>
