<?xml version="1.0" encoding="utf-8"?>
<svg version="1.0" xmlns="http://www.w3.org/2000/svg" width="1024.000000pt" height="1024.000000pt" viewBox="0 0 1024.000000 1024.000000" preserveAspectRatio="xMidYMid meet">
  <g transform="translate(0.000000,1024.000000) scale(0.100000,-0.100000)" fill="#000000" stroke="none">
    <path d="M4930 6478 c-416 -610 -542 -788 -555 -788 -8 0 -49 14 -91 30 -42 17 -203 79 -358 137 -606 229 -881 330 -884 324 -2 -7 195 -717 273 -981 19 -63 102 -357 186 -653 151 -531 153 -538 171 -515 27 35 388 549 523 745 600 868 919 1323 926 1321 4 -2 52 -66 105 -143 195 -282 264 -382 694 -1000 96 -137 208 -299 250 -360 187 -270 372 -532 393 -559 l23 -29 22 74 c11 41 93 328 181 639 88 311 216 764 285 1008 69 243 126 447 126 452 0 12 26 21 -850 -312 -248 -95 -476 -178 -486 -178 -10 0 -43 47 -383 540 -85 124 -184 268 -220 320 -36 53 -82 119 -101 148 -19 28 -37 52 -40 52 -3 -1 -88 -123 -190 -272z m-1065 -988 c215 -82 291 -113 296 -121 4 -5 -133 -206 -305 -448 -56 -80 -60 -83 -68 -60 -12 31 -193 666 -203 707 l-7 32 54 -21 c29 -11 134 -52 233 -89z m2706 -227 c-49 -175 -95 -339 -102 -366 -6 -26 -15 -50 -20 -52 -4 -3 -39 39 -77 92 -162 228 -291 419 -292 430 0 6 42 27 93 47 320 123 482 182 485 175 2 -5 -37 -152 -87 -326z" style="fill: rgb(39, 24, 126);"/>
    <path d="M5020 5004 c-22 -9 -241 -220 -598 -577 -615 -615 -598 -594 -596 -712 1 -149 123 -257 270 -242 29 3 67 13 85 22 19 9 237 219 485 467 l451 450 454 -451 c251 -250 470 -458 489 -468 116 -55 275 -1 331 114 32 65 33 170 2 228 -31 58 -1116 1137 -1170 1164 -51 25 -150 28 -203 5z" style="fill: rgb(247, 247, 255);"/>
  </g>
</svg>