<svg xmlns="http://www.w3.org/2000/svg" viewBox="-5.00 24.90 621.60 81.10" height="48" role="img" aria-label="FRONTEND">
  <path d="M1.4 100L1.4 30.9L57.5 30.9L57.5 60L35.9 60L35.9 64L57.5 64L57.5 78L35.9 78L35.9 100L1.4 100 M104.4 79.8L102.2 79.8L102.2 100L67.8 100L67.8 30.9L104.1 30.9Q122 30.9 130.4 36.75Q138.8 42.6 138.8 57L138.8 57Q138.8 67.9 131.7 73.1L131.7 73.1Q137.7 83.8 140.8 100L140.8 100L107.9 100Q107.1 89.9 105.1 82.2L105.1 82.2L104.4 79.8M102.2 60L102.2 71.7L105.1 71.7Q106.3 71.7 107.1 70.9Q107.9 70.1 107.9 68.8L107.9 68.8L107.9 62.8Q107.9 61.5 107.1 60.75Q106.3 60 105.1 60L105.1 60L102.2 60 M184.2 29.9L184.2 29.9L192.5 29.9Q210.5 29.9 218.7 38.4Q226.9 46.9 226.9 65.1Q226.9 83.3 218.65 92.15Q210.4 101 192.5 101L192.5 101L184.2 101Q166.3 101 158 92.15Q149.7 83.3 149.7 65.1Q149.7 46.9 157.95 38.4Q166.2 29.9 184.2 29.9M185.5 62.8L185.5 62.8L185.5 74.4Q185.5 75.7 186.25 76.5Q187 77.3 188.25 77.3Q189.5 77.3 190.35 76.5Q191.2 75.7 191.2 74.4L191.2 74.4L191.2 62.8Q191.2 61.6 190.35 60.8Q189.5 60 188.25 60Q187 60 186.25 60.8Q185.5 61.6 185.5 62.8 M237.3 100L237.3 30.9L267.9 30.9L274.2 51.5L274.2 30.9L305 30.9L305 100L274.2 100L268.9 79.8L268.9 100L237.3 100 M328.8 60L316.8 60L316.8 30.9L378.4 30.9L378.4 60L366.2 60L366.2 100L328.8 100L328.8 60 M390.2 100L390.2 30.9L446.2 30.9L446.2 60L424.6 60L424.6 64L446.2 64L446.2 70.3L424.6 70.3L424.6 74.3L447.1 74.3L447.1 100L390.2 100 M458.8 100L458.8 30.9L489.4 30.9L495.7 51.5L495.7 30.9L526.5 30.9L526.5 100L495.7 100L490.4 79.8L490.4 100L458.8 100 M538.3 100L538.3 30.9L574.4 30.9Q591.1 30.9 599.95 38.9Q608.8 46.9 608.8 65L608.8 65Q608.8 100 573 100L573 100L538.3 100M574.7 60L571.9 60L571.9 77.3L574.7 77.3Q575.9 77.3 576.75 76.5Q577.6 75.7 577.6 74.4L577.6 74.4L577.6 62.8Q577.6 61.6 576.75 60.8Q575.9 60 574.7 60L574.7 60" fill="#E8C157"/>
</svg>
