<svg xmlns="http://www.w3.org/2000/svg" viewBox="-5.00 24.90 621.60 168.09" height="64" role="img" aria-label="FRONTEND — portfolio-web">
  <path d="M1.4 100L1.4 30.9L57.5 30.9L57.5 60L35.9 60L35.9 64L57.5 64L57.5 78L35.9 78L35.9 100L1.4 100 M104.4 79.8L102.2 79.8L102.2 100L67.8 100L67.8 30.9L104.1 30.9Q122 30.9 130.4 36.75Q138.8 42.6 138.8 57L138.8 57Q138.8 67.9 131.7 73.1L131.7 73.1Q137.7 83.8 140.8 100L140.8 100L107.9 100Q107.1 89.9 105.1 82.2L105.1 82.2L104.4 79.8M102.2 60L102.2 71.7L105.1 71.7Q106.3 71.7 107.1 70.9Q107.9 70.1 107.9 68.8L107.9 68.8L107.9 62.8Q107.9 61.5 107.1 60.75Q106.3 60 105.1 60L105.1 60L102.2 60 M184.2 29.9L184.2 29.9L192.5 29.9Q210.5 29.9 218.7 38.4Q226.9 46.9 226.9 65.1Q226.9 83.3 218.65 92.15Q210.4 101 192.5 101L192.5 101L184.2 101Q166.3 101 158 92.15Q149.7 83.3 149.7 65.1Q149.7 46.9 157.95 38.4Q166.2 29.9 184.2 29.9M185.5 62.8L185.5 62.8L185.5 74.4Q185.5 75.7 186.25 76.5Q187 77.3 188.25 77.3Q189.5 77.3 190.35 76.5Q191.2 75.7 191.2 74.4L191.2 74.4L191.2 62.8Q191.2 61.6 190.35 60.8Q189.5 60 188.25 60Q187 60 186.25 60.8Q185.5 61.6 185.5 62.8 M237.3 100L237.3 30.9L267.9 30.9L274.2 51.5L274.2 30.9L305 30.9L305 100L274.2 100L268.9 79.8L268.9 100L237.3 100 M328.8 60L316.8 60L316.8 30.9L378.4 30.9L378.4 60L366.2 60L366.2 100L328.8 100L328.8 60 M390.2 100L390.2 30.9L446.2 30.9L446.2 60L424.6 60L424.6 64L446.2 64L446.2 70.3L424.6 70.3L424.6 74.3L447.1 74.3L447.1 100L390.2 100 M458.8 100L458.8 30.9L489.4 30.9L495.7 51.5L495.7 30.9L526.5 30.9L526.5 100L495.7 100L490.4 79.8L490.4 100L458.8 100 M538.3 100L538.3 30.9L574.4 30.9Q591.1 30.9 599.95 38.9Q608.8 46.9 608.8 65L608.8 65Q608.8 100 573 100L573 100L538.3 100M574.7 60L571.9 60L571.9 77.3L574.7 77.3Q575.9 77.3 576.75 76.5Q577.6 75.7 577.6 74.4L577.6 74.4L577.6 62.8Q577.6 61.6 576.75 60.8Q575.9 60 574.7 60L574.7 60" fill="#E2711D"/>
  <path d="M91.95 171.59L84.42 166.76Q84.67 166.16 85.17 165.09Q85.68 164.03 86.56 162.12Q87.43 160.21 88.69 157.32Q89.95 154.44 91.67 150.18Q93.38 145.93 95.64 140.17Q97.90 134.42 100.73 126.82L100.73 126.82Q100.98 126.16 101.36 125.16Q101.75 124.16 102.20 122.99Q102.66 121.82 103.15 120.56Q103.64 119.30 104.07 118.12Q104.51 116.95 104.88 115.94Q105.25 114.92 105.49 114.26L105.49 114.26Q105.88 113.14 106.72 112.72Q107.56 112.30 108.57 112.30L108.57 112.30Q109.59 112.30 110.64 112.54Q111.69 112.79 112.60 112.96L112.60 112.96Q114.80 112.33 116.69 112.33L116.69 112.33Q119.49 112.33 121.61 113.54Q123.73 114.75 125.14 116.71Q126.56 118.67 127.28 121.17Q128.00 123.67 128.00 126.26L128.00 126.26Q128.00 128.05 127.61 129.94Q127.23 131.83 126.37 133.66Q125.51 135.50 124.15 137.16Q122.78 138.83 120.86 140.09L120.86 140.09Q123.06 139.81 125.21 138.65Q127.37 137.50 129.54 135.61Q131.71 133.72 133.91 131.16Q136.12 128.61 138.43 125.53L138.43 125.53Q139.55 125.70 140.28 126.47Q141.02 127.24 141.02 128.61L141.02 128.61Q141.02 129.55 140.61 130.74Q140.21 131.93 139.28 133.40Q138.36 134.87 136.89 136.57Q135.42 138.27 133.28 140.19L133.28 140.19Q130.13 143.03 127.02 144.74Q123.90 146.46 121.10 146.46L121.10 146.46Q119.63 146.46 118.34 145.95Q117.04 145.44 115.92 144.32L115.92 144.32Q114.45 145.23 112.79 145.63Q111.13 146.04 109.41 146.04L109.41 146.04Q107.63 146.04 105.88 145.67Q104.13 145.30 102.52 144.71L102.52 144.71Q100.17 151.71 97.44 158.50Q94.71 165.29 91.95 171.59L91.95 171.59M118.27 131.76L118.27 131.76Q118.83 130.74 119.14 129.48Q119.46 128.22 119.46 127.00L119.46 127.00Q119.46 125.84 119.18 124.81Q118.90 123.78 118.32 122.99Q117.74 122.20 116.81 121.73Q115.89 121.26 114.59 121.26L114.59 121.26Q113.96 121.26 113.56 121.26Q113.16 121.26 112.81 121.31Q112.46 121.36 112.05 121.45Q111.65 121.54 111.02 121.71L111.02 121.71Q110.18 123.99 109.39 125.84Q108.61 127.70 107.87 129.43Q107.14 131.16 106.44 132.93Q105.74 134.70 105.04 136.83L105.04 136.83Q106.82 137.78 108.96 137.78L108.96 137.78Q110.22 137.78 111.51 137.43Q112.81 137.08 114.01 136.34Q115.22 135.61 116.31 134.47Q117.39 133.33 118.27 131.76" fill="#DCA548"/>
  <path d="M169.05 125.63L172.73 129.34Q172.20 130.67 171.24 131.79Q170.28 132.91 169.07 133.72Q167.86 134.52 166.53 134.96Q165.20 135.40 163.94 135.40L163.94 135.40Q162.30 135.40 161.07 134.63L161.07 134.63Q160.06 137.04 158.74 138.95Q157.43 140.86 155.80 142.41Q154.18 143.97 152.27 145.27Q150.36 146.56 148.23 147.75L148.23 147.75Q147.91 147.93 147.42 147.93L147.42 147.93Q146.62 147.93 145.53 147.44Q144.45 146.95 143.24 146.18Q142.03 145.41 140.81 144.46Q139.58 143.52 138.50 142.61Q137.41 141.70 136.54 140.93Q135.66 140.16 135.17 139.74L135.17 139.74Q135.07 139.21 134.96 138.56Q134.86 137.92 134.79 137.27Q134.72 136.62 134.68 136.06Q134.65 135.50 134.65 135.19L134.65 135.19Q134.65 133.40 135.24 131.51Q135.84 129.62 136.76 127.82Q137.69 126.02 138.83 124.35Q139.97 122.69 141.05 121.40L141.05 121.40Q141.93 120.24 143.41 119.00Q144.90 117.76 146.67 116.76Q148.44 115.76 150.31 115.11Q152.18 114.47 153.83 114.47L153.83 114.47Q155.61 114.47 157.27 115.52Q158.94 116.57 160.23 118.12Q161.53 119.68 162.31 121.47Q163.10 123.25 163.10 124.76L163.10 124.76Q163.10 125.07 163.07 125.47Q163.03 125.88 162.98 126.28Q162.93 126.68 162.84 127.07Q162.75 127.45 162.65 127.70L162.65 127.70Q162.79 127.80 162.87 127.85Q162.96 127.91 163.10 127.96Q163.24 128.01 163.49 128.03Q163.73 128.05 164.22 128.05L164.22 128.05Q164.75 128.05 165.31 127.99Q165.87 127.94 166.48 127.70Q167.09 127.45 167.72 126.96Q168.35 126.47 169.05 125.63L169.05 125.63M153.65 124.27L153.65 124.27Q153.16 123.95 152.67 123.95L152.67 123.95Q152.25 123.95 151.85 124.16Q151.45 124.37 151.13 124.69L151.13 124.69Q149.84 126.05 148.70 127.59Q147.56 129.13 146.72 130.72Q145.88 132.31 145.39 133.89Q144.90 135.47 144.90 136.87L144.90 136.87Q144.90 137.25 145.18 137.50Q145.46 137.74 145.85 137.74L145.85 137.74Q146.41 137.74 147.25 137.25Q148.09 136.76 148.96 136.04Q149.84 135.33 150.66 134.52Q151.48 133.72 152.01 133.09L152.01 133.09Q152.92 132.00 153.62 130.90Q154.32 129.80 154.95 128.57L154.95 128.57Q154.39 128.12 154.12 127.61Q153.86 127.10 153.76 126.56Q153.65 126.02 153.67 125.44Q153.69 124.86 153.65 124.27" fill="#DCA548"/>
  <path d="M168.11 131.51L166.92 128.15Q167.13 127.56 167.63 126.94Q168.14 126.33 168.49 125.81L168.49 125.81Q168.84 125.25 169.00 124.37Q169.16 123.50 169.23 122.45Q169.30 121.40 169.33 120.29Q169.37 119.19 169.47 118.19Q169.58 117.20 169.77 116.39Q169.96 115.59 170.38 115.17L170.38 115.17Q171.01 114.96 171.54 114.96L171.54 114.96Q172.31 114.96 172.85 115.34Q173.39 115.73 173.95 116.20Q174.51 116.67 175.14 117.06Q175.77 117.44 176.72 117.44L176.72 117.44Q180.01 117.44 183.10 116.72Q186.20 116.01 188.86 114.33L188.86 114.33Q190.33 113.42 191.87 112.14Q193.41 110.86 194.74 109.74L194.74 109.74Q195.02 109.53 195.39 109.44Q195.76 109.36 196.04 109.25L196.04 109.25Q196.63 109.64 197.23 110.41Q197.82 111.18 198.28 112.09Q198.73 113.00 199.01 113.87Q199.29 114.75 199.29 115.34L199.29 115.34Q199.29 115.97 198.42 116.22L198.42 116.22Q197.58 116.50 196.63 117.35Q195.69 118.21 194.69 119.44Q193.69 120.66 192.69 122.10Q191.70 123.53 190.79 124.95Q189.88 126.37 189.09 127.66Q188.30 128.96 187.74 129.83L187.74 129.83Q186.41 131.93 185.47 134.15Q184.52 136.38 184.52 138.69L184.52 138.69Q184.52 140.37 184.80 141.01Q185.08 141.66 185.43 141.66L185.43 141.66Q186.24 141.66 187.48 140.98Q188.72 140.30 190.17 139.19Q191.63 138.09 193.18 136.71Q194.74 135.33 196.19 133.96Q197.65 132.60 198.87 131.35Q200.10 130.11 200.87 129.27L200.87 129.27Q202.06 128.01 202.76 127.12Q203.46 126.23 203.60 126.09L203.60 126.09Q204.02 125.67 204.63 125.81Q205.24 125.95 205.84 126.35Q206.43 126.75 206.85 127.26Q207.27 127.77 207.27 128.12L207.27 128.12Q207.27 128.75 207.01 129.46Q206.75 130.18 206.31 130.99Q205.87 131.79 205.31 132.65Q204.75 133.51 204.16 134.35L204.16 134.35Q202.83 136.24 201.50 138.35Q200.17 140.47 198.50 142.61Q196.84 144.74 194.72 146.77Q192.61 148.80 189.70 150.52L189.70 150.52Q188.06 150.10 186.31 149.43Q184.56 148.77 182.86 147.94Q181.16 147.12 179.57 146.16Q177.98 145.20 176.65 144.18L176.65 144.18Q174.34 142.43 174.34 139.42L174.34 139.42Q174.34 137.43 175.04 135.13Q175.74 132.84 176.72 130.67Q177.70 128.50 178.75 126.68Q179.80 124.86 180.46 123.81L180.46 123.81Q179.80 124.23 179.06 124.42Q178.33 124.62 177.59 124.62L177.59 124.62Q176.68 124.62 175.88 124.34Q175.07 124.06 174.58 123.53L174.58 123.53Q174.37 124.79 173.83 126.26Q173.29 127.73 172.52 128.97Q171.75 130.22 170.80 131.04Q169.86 131.86 168.88 131.86L168.88 131.86Q168.35 131.86 168.11 131.51L168.11 131.51" fill="#DCA548"/>
  <path d="M237.83 110.79L236.78 114.12Q235.69 114.68 233.84 115.18Q231.98 115.69 230.00 116.13Q228.03 116.57 226.26 116.88Q224.49 117.20 223.55 117.37L223.55 117.37Q222.36 117.58 221.57 117.69Q220.78 117.79 220.26 117.88Q219.73 117.97 219.38 118.16Q219.03 118.35 218.70 118.72Q218.37 119.09 218.02 119.75Q217.67 120.42 217.14 121.47L217.14 121.47Q216.62 122.55 215.74 124.48Q214.87 126.40 214.03 128.64Q213.19 130.88 212.59 133.19Q212.00 135.50 212.00 137.36L212.00 137.36Q212.00 138.16 212.14 138.86Q212.28 139.56 212.63 140.09L212.63 140.09Q213.71 140.09 215.25 139.46Q216.79 138.83 218.58 137.76Q220.36 136.69 222.25 135.29Q224.14 133.89 225.89 132.35Q227.64 130.81 229.15 129.24Q230.65 127.66 231.67 126.26L231.67 126.26L236.29 129.10Q235.48 130.78 234.12 132.86Q232.75 134.94 231.05 137.06Q229.36 139.18 227.40 141.19Q225.44 143.20 223.44 144.76Q221.45 146.32 219.52 147.24Q217.60 148.17 215.95 148.14L215.95 148.14Q214.76 147.72 213.19 147.28Q211.61 146.84 209.91 146.28Q208.22 145.72 206.57 145.02Q204.93 144.32 203.63 143.38Q202.34 142.43 201.53 141.19Q200.73 139.95 200.73 138.37L200.73 138.37Q200.73 133.96 202.06 129.17Q203.39 124.37 206.15 119.93L206.15 119.93Q205.31 120.03 204.10 120.24Q202.90 120.45 201.53 120.68Q200.17 120.91 198.78 121.13Q197.40 121.36 196.19 121.52Q194.99 121.68 194.08 121.73Q193.17 121.78 192.82 121.64L192.82 121.64Q191.52 121.22 191.50 120.68Q191.49 120.14 192.29 119.56Q193.10 118.98 194.50 118.40Q195.90 117.83 197.47 117.32Q199.05 116.81 200.55 116.43Q202.06 116.04 203.04 115.83L203.04 115.83Q205.14 115.41 206.29 115.13Q207.45 114.85 208.15 114.43Q208.85 114.01 209.37 113.33Q209.90 112.65 210.74 111.42L210.74 111.42Q211.23 110.72 211.93 109.55Q212.63 108.38 213.47 107.03Q214.31 105.68 215.27 104.32Q216.23 102.95 217.21 101.87Q218.19 100.78 219.17 100.08Q220.15 99.38 221.06 99.38L221.06 99.38Q223.13 99.38 224.79 100.08Q226.45 100.78 228.06 102.01L228.06 102.01Q226.17 104.67 224.14 107.43Q222.11 110.20 220.64 113.21L220.64 113.21Q221.62 113.14 222.99 112.96Q224.35 112.79 225.93 112.56Q227.50 112.33 229.18 112.07Q230.86 111.81 232.44 111.56Q234.01 111.32 235.41 111.11Q236.81 110.90 237.83 110.79L237.83 110.79" fill="#DCA548"/>
  <path d="M260.89 125.88L261.94 127.21Q262.33 127.70 262.50 128.29Q262.68 128.89 262.68 129.45L262.68 129.45Q262.68 130.60 262.13 131.65Q261.59 132.70 261.10 133.30L261.10 133.30Q258.93 135.75 256.67 137.20Q254.42 138.65 252.14 139.42Q249.87 140.19 247.64 140.44Q245.42 140.68 243.32 140.68L243.32 140.68L242.80 140.68Q241.29 144.95 239.89 148.87Q238.49 152.79 237.09 156.50Q235.69 160.21 234.19 163.73Q232.68 167.25 230.98 170.75Q229.29 174.25 227.31 177.78Q225.33 181.32 222.95 184.99L222.95 184.99Q222.74 184.99 222.09 184.73Q221.45 184.47 220.55 184.05Q219.66 183.63 218.66 183.10Q217.67 182.58 216.79 182.10Q215.92 181.63 215.27 181.25Q214.62 180.86 214.45 180.69L214.45 180.69Q215.36 178.38 216.74 175.44Q218.12 172.50 219.77 169.05Q221.41 165.60 223.21 161.66Q225.02 157.73 226.78 153.37Q228.55 149.01 230.18 144.32Q231.81 139.63 233.07 134.66L233.07 134.66Q233.07 134.63 232.61 134.00Q232.16 133.37 231.56 132.60Q230.97 131.83 230.42 131.18Q229.88 130.53 229.71 130.43L229.71 130.43Q229.71 130.22 229.69 130.02Q229.67 129.83 229.67 129.66L229.67 129.66Q229.67 129.17 229.78 128.78Q229.88 128.40 230.23 127.91L230.23 127.91Q231.14 126.65 232.44 125.63Q233.73 124.62 234.96 123.78Q236.18 122.94 237.11 122.25Q238.04 121.57 238.25 120.98L238.25 120.98Q239.86 117.16 241.97 112.68Q244.09 108.20 246.70 103.77Q249.31 99.34 252.39 95.34Q255.47 91.33 258.93 88.43L258.93 88.43L262.54 88.18Q260.68 92.07 258.51 95.76Q256.34 99.45 254.17 103.23Q252.00 107.01 250.02 111.05Q248.05 115.10 246.61 119.65L246.61 119.65Q246.09 121.29 245.56 122.87Q245.04 124.44 244.58 125.93Q244.13 127.42 243.83 128.80Q243.53 130.18 243.50 131.41L243.50 131.41Q244.79 131.62 246.51 131.62L246.51 131.62Q247.98 131.62 249.66 131.37Q251.34 131.13 253.17 130.50Q255.01 129.87 256.95 128.75Q258.90 127.63 260.89 125.88L260.89 125.88" fill="#DCA548"/>
  <path d="M291.20 125.63L294.88 129.34Q294.35 130.67 293.39 131.79Q292.43 132.91 291.22 133.72Q290.01 134.52 288.68 134.96Q287.35 135.40 286.09 135.40L286.09 135.40Q284.45 135.40 283.22 134.63L283.22 134.63Q282.21 137.04 280.89 138.95Q279.58 140.86 277.95 142.41Q276.33 143.97 274.42 145.27Q272.51 146.56 270.38 147.75L270.38 147.75Q270.06 147.93 269.57 147.93L269.57 147.93Q268.77 147.93 267.68 147.44Q266.60 146.95 265.39 146.18Q264.18 145.41 262.96 144.46Q261.73 143.52 260.65 142.61Q259.56 141.70 258.69 140.93Q257.81 140.16 257.32 139.74L257.32 139.74Q257.22 139.21 257.11 138.56Q257.01 137.92 256.94 137.27Q256.87 136.62 256.83 136.06Q256.80 135.50 256.80 135.19L256.80 135.19Q256.80 133.40 257.39 131.51Q257.99 129.62 258.91 127.82Q259.84 126.02 260.98 124.35Q262.12 122.69 263.20 121.40L263.20 121.40Q264.08 120.24 265.56 119.00Q267.05 117.76 268.82 116.76Q270.59 115.76 272.46 115.11Q274.33 114.47 275.98 114.47L275.98 114.47Q277.76 114.47 279.42 115.52Q281.09 116.57 282.38 118.12Q283.68 119.68 284.46 121.47Q285.25 123.25 285.25 124.76L285.25 124.76Q285.25 125.07 285.22 125.47Q285.18 125.88 285.13 126.28Q285.08 126.68 284.99 127.07Q284.90 127.45 284.80 127.70L284.80 127.70Q284.94 127.80 285.02 127.85Q285.11 127.91 285.25 127.96Q285.39 128.01 285.64 128.03Q285.88 128.05 286.37 128.05L286.37 128.05Q286.90 128.05 287.46 127.99Q288.02 127.94 288.63 127.70Q289.24 127.45 289.87 126.96Q290.50 126.47 291.20 125.63L291.20 125.63M275.80 124.27L275.80 124.27Q275.31 123.95 274.82 123.95L274.82 123.95Q274.40 123.95 274.00 124.16Q273.60 124.37 273.28 124.69L273.28 124.69Q271.99 126.05 270.85 127.59Q269.71 129.13 268.87 130.72Q268.03 132.31 267.54 133.89Q267.05 135.47 267.05 136.87L267.05 136.87Q267.05 137.25 267.33 137.50Q267.61 137.74 268.00 137.74L268.00 137.74Q268.56 137.74 269.40 137.25Q270.24 136.76 271.11 136.04Q271.99 135.33 272.81 134.52Q273.63 133.72 274.16 133.09L274.16 133.09Q275.07 132.00 275.77 130.90Q276.47 129.80 277.10 128.57L277.10 128.57Q276.54 128.12 276.27 127.61Q276.01 127.10 275.91 126.56Q275.80 126.02 275.82 125.44Q275.84 124.86 275.80 124.27" fill="#DCA548"/>
  <path d="M302.26 147.65L302.26 147.65Q301.35 147.65 299.97 147.12Q298.59 146.60 297.01 145.76Q295.44 144.92 293.86 143.90Q292.29 142.89 291.03 141.87Q289.77 140.86 288.96 139.98Q288.16 139.11 288.16 138.58L288.16 138.58Q288.16 134.73 288.84 130.95Q289.52 127.17 290.69 123.48Q291.87 119.79 293.42 116.18Q294.98 112.58 296.73 109.09Q298.48 105.61 300.32 102.25Q302.16 98.89 303.87 95.71L303.87 95.71Q304.82 93.96 306.30 91.79Q307.79 89.62 309.66 87.69Q311.54 85.77 313.69 84.47Q315.84 83.18 318.08 83.18L318.08 83.18Q318.99 83.18 319.97 83.84Q320.95 84.51 321.84 85.50Q322.74 86.50 323.54 87.71Q324.35 88.92 324.94 90.02Q325.54 91.12 325.89 91.93Q326.24 92.73 326.24 92.98L326.24 92.98Q326.17 96.65 324.82 100.59Q323.47 104.53 321.27 108.43Q319.06 112.33 316.19 116.04Q313.32 119.75 310.26 122.99Q307.20 126.23 304.15 128.83Q301.11 131.44 298.48 133.12L298.48 133.12Q298.48 133.40 298.62 134.31Q298.76 135.22 299.08 136.20Q299.39 137.18 299.92 137.97Q300.44 138.76 301.18 138.76L301.18 138.76Q302.16 138.76 303.38 138.16Q304.61 137.56 305.99 136.59Q307.37 135.61 308.84 134.31Q310.31 133.02 311.76 131.65Q313.22 130.29 314.65 128.92Q316.09 127.56 317.35 126.40L317.35 126.40Q317.73 126.02 318.15 125.91Q318.57 125.81 318.89 125.81L318.89 125.81Q319.59 125.81 319.97 126.37Q320.36 126.93 320.36 127.70L320.36 127.70Q320.36 128.61 319.81 129.94Q319.27 131.27 318.34 132.84Q317.42 134.42 316.16 136.13Q314.90 137.85 313.46 139.49Q312.03 141.14 310.50 142.61Q308.98 144.08 307.51 145.20Q306.04 146.32 304.69 146.98Q303.35 147.65 302.26 147.65M301.67 122.55L301.67 122.55Q302.96 121.75 304.36 120.50Q305.76 119.26 307.11 117.77Q308.46 116.29 309.75 114.62Q311.05 112.96 312.18 111.28Q313.32 109.60 314.23 108.01Q315.14 106.42 315.74 105.09L315.74 105.09Q316.51 103.37 317.42 101.52Q318.33 99.66 319.13 97.82Q319.94 95.99 320.51 94.18Q321.09 92.38 321.20 90.77L321.20 90.77Q320.85 90.91 320.50 90.98Q320.15 91.05 319.97 91.30L319.97 91.30Q317.56 94.20 315.30 97.46Q313.04 100.71 310.80 104.49Q308.56 108.27 306.23 112.66Q303.91 117.06 301.35 122.17L301.35 122.17Q301.39 122.55 301.67 122.55" fill="#DCA548"/>
  <path d="M327.46 102.36L327.46 102.36Q328.16 102.32 328.86 102.25L328.86 102.25Q329.46 102.22 330.16 102.18Q330.86 102.15 331.45 102.15L331.45 102.15Q332.22 102.15 333.06 102.72Q333.90 103.30 334.60 104.32Q335.30 105.33 335.76 106.70Q336.21 108.06 336.21 109.64L336.21 109.64Q336.21 110.79 335.58 111.58Q334.95 112.37 333.38 112.37L333.38 112.37Q331.87 112.37 330.54 111.93Q329.21 111.49 328.21 110.70Q327.22 109.92 326.64 108.83Q326.06 107.75 326.06 106.49L326.06 106.49Q326.06 105.40 326.43 104.39Q326.80 103.37 327.46 102.36M340.31 125.98L340.31 125.98Q340.80 126.68 341.32 127.24Q341.85 127.80 342.27 128.19Q342.69 128.57 342.95 128.81Q343.21 129.06 343.21 129.13L343.21 129.13Q342.69 130.29 341.55 132.07Q340.41 133.86 338.92 135.89Q337.44 137.92 335.74 139.96Q334.04 142.01 332.40 143.67Q330.75 145.34 329.26 146.37Q327.78 147.40 326.73 147.40L326.73 147.40Q326.06 147.40 325.03 147.10Q324.00 146.81 322.81 146.33Q321.62 145.86 320.41 145.28Q319.20 144.71 318.17 144.13Q317.14 143.55 316.40 143.03Q315.67 142.50 315.42 142.19L315.42 142.19Q314.79 141.28 314.51 140.09Q314.23 138.90 314.23 137.50L314.23 137.50Q314.23 135.68 314.76 133.24Q315.28 130.81 316.17 128.26Q317.07 125.70 318.22 123.22Q319.38 120.73 320.60 118.77Q321.83 116.81 323.05 115.60Q324.28 114.40 325.29 114.40L325.29 114.40Q325.85 114.40 326.48 114.82L326.48 114.82Q327.43 115.52 328.11 116.30Q328.79 117.09 329.28 117.97Q329.77 118.84 330.12 119.82Q330.47 120.80 330.79 121.89L330.79 121.89Q330.19 122.55 329.51 123.65Q328.83 124.76 328.13 126.12Q327.43 127.49 326.78 129.01Q326.13 130.53 325.62 132.05Q325.12 133.58 324.82 135.03Q324.52 136.48 324.52 137.64L324.52 137.64Q324.52 138.58 324.73 139.25L324.73 139.25Q326.48 138.37 328.58 136.74Q330.68 135.12 332.78 133.23Q334.88 131.34 336.84 129.39Q338.80 127.45 340.31 125.98" fill="#DCA548"/>
  <path d="M371.11 125.63L374.78 129.34Q374.26 130.67 373.29 131.79Q372.33 132.91 371.12 133.72Q369.92 134.52 368.59 134.96Q367.26 135.40 366.00 135.40L366.00 135.40Q364.35 135.40 363.13 134.63L363.13 134.63Q362.11 137.04 360.80 138.95Q359.49 140.86 357.86 142.41Q356.23 143.97 354.32 145.27Q352.42 146.56 350.28 147.75L350.28 147.75Q349.97 147.93 349.48 147.93L349.48 147.93Q348.67 147.93 347.59 147.44Q346.50 146.95 345.29 146.18Q344.09 145.41 342.86 144.46Q341.64 143.52 340.55 142.61Q339.47 141.70 338.59 140.93Q337.72 140.16 337.23 139.74L337.23 139.74Q337.12 139.21 337.02 138.56Q336.91 137.92 336.84 137.27Q336.77 136.62 336.74 136.06Q336.70 135.50 336.70 135.19L336.70 135.19Q336.70 133.40 337.30 131.51Q337.89 129.62 338.82 127.82Q339.75 126.02 340.88 124.35Q342.02 122.69 343.11 121.40L343.11 121.40Q343.98 120.24 345.47 119.00Q346.96 117.76 348.72 116.76Q350.49 115.76 352.36 115.11Q354.24 114.47 355.88 114.47L355.88 114.47Q357.67 114.47 359.33 115.52Q360.99 116.57 362.29 118.12Q363.58 119.68 364.37 121.47Q365.16 123.25 365.16 124.76L365.16 124.76Q365.16 125.07 365.12 125.47Q365.09 125.88 365.03 126.28Q364.98 126.68 364.89 127.07Q364.81 127.45 364.70 127.70L364.70 127.70Q364.84 127.80 364.93 127.85Q365.02 127.91 365.16 127.96Q365.30 128.01 365.54 128.03Q365.79 128.05 366.28 128.05L366.28 128.05Q366.80 128.05 367.36 127.99Q367.92 127.94 368.53 127.70Q369.15 127.45 369.78 126.96Q370.41 126.47 371.11 125.63L371.11 125.63M355.71 124.27L355.71 124.27Q355.22 123.95 354.73 123.95L354.73 123.95Q354.31 123.95 353.90 124.16Q353.50 124.37 353.19 124.69L353.19 124.69Q351.89 126.05 350.75 127.59Q349.62 129.13 348.78 130.72Q347.94 132.31 347.45 133.89Q346.96 135.47 346.96 136.87L346.96 136.87Q346.96 137.25 347.24 137.50Q347.52 137.74 347.90 137.74L347.90 137.74Q348.46 137.74 349.30 137.25Q350.14 136.76 351.02 136.04Q351.89 135.33 352.71 134.52Q353.54 133.72 354.06 133.09L354.06 133.09Q354.97 132.00 355.67 130.90Q356.37 129.80 357.00 128.57L357.00 128.57Q356.44 128.12 356.18 127.61Q355.92 127.10 355.81 126.56Q355.71 126.02 355.72 125.44Q355.74 124.86 355.71 124.27" fill="#DCA548"/>
  <path d="M400.65 127.94L399.56 134.42Q396.83 134.70 393.72 134.78Q390.60 134.87 387.54 134.82Q384.48 134.77 381.64 134.57Q378.81 134.38 376.67 134.03L376.67 134.03L376.22 129.20Q379.19 128.78 382.20 128.68Q385.21 128.57 388.26 128.55Q391.30 128.54 394.40 128.45Q397.50 128.36 400.65 127.94L400.65 127.94" fill="#DCA548"/>
  <path d="M458.47 126.33L462.56 132.04Q462.00 132.63 460.92 133.51Q459.83 134.38 458.43 135.19Q457.03 135.99 455.44 136.57Q453.85 137.15 452.31 137.15L452.31 137.15Q451.47 137.15 450.87 136.97Q450.28 136.80 449.82 136.52Q449.37 136.24 449.00 135.85Q448.63 135.47 448.25 135.08L448.25 135.08Q447.97 136.13 447.27 137.95Q446.57 139.77 445.52 141.91Q444.47 144.04 443.12 146.23Q441.77 148.42 440.16 150.20Q438.55 151.99 436.75 153.12Q434.95 154.26 432.99 154.26L432.99 154.26Q431.73 154.26 430.20 153.53Q428.68 152.79 427.19 151.69Q425.71 150.59 424.45 149.33Q423.19 148.07 422.49 147.02L422.49 147.02Q421.19 148.07 419.77 149.03Q418.36 149.99 416.83 150.69Q415.31 151.39 413.72 151.81Q412.13 152.23 410.48 152.23L410.48 152.23Q408.59 152.23 406.86 151.67Q405.13 151.11 403.81 150.06Q402.50 149.01 401.73 147.47Q400.96 145.93 400.96 143.97L400.96 143.97Q400.96 142.15 401.42 139.58Q401.87 137.01 402.76 134.22Q403.66 131.44 404.95 128.71Q406.25 125.98 407.93 123.81Q409.61 121.64 411.65 120.29Q413.70 118.95 416.08 118.95L416.08 118.95Q416.78 118.95 417.34 119.07Q417.90 119.19 418.46 119.47Q419.02 119.75 419.62 120.22Q420.21 120.70 420.95 121.43L420.95 121.43Q418.99 123.39 417.41 125.82Q415.84 128.26 414.73 130.81Q413.63 133.37 413.04 135.81Q412.44 138.27 412.44 140.23L412.44 140.23Q412.44 141.70 412.83 142.85L412.83 142.85Q414.86 142.29 416.94 140.51Q419.02 138.72 421.07 136.10Q423.12 133.47 425.04 130.18Q426.97 126.89 428.65 123.32L428.65 123.32Q429.31 123.04 430.29 123.04L430.29 123.04Q431.17 123.04 432.20 123.27Q433.23 123.50 434.09 123.97Q434.95 124.44 435.52 125.16Q436.10 125.88 436.10 126.86L436.10 126.86Q436.10 127.35 435.61 128.45Q435.12 129.55 434.37 131.02Q433.62 132.49 432.74 134.24Q431.87 135.99 431.11 137.78Q430.36 139.56 429.87 141.28Q429.38 142.99 429.38 144.43L429.38 144.43Q429.38 144.57 429.40 144.86Q429.42 145.16 429.45 145.44Q429.49 145.72 429.57 145.95Q429.66 146.18 429.77 146.18L429.77 146.18Q430.47 146.18 431.50 145.18Q432.53 144.18 433.76 142.55Q434.98 140.93 436.33 138.84Q437.68 136.76 438.99 134.59Q440.30 132.42 441.51 130.34Q442.72 128.26 443.70 126.63Q444.68 125.00 445.34 124.00Q446.01 123.01 446.22 123.01L446.22 123.01Q446.85 123.53 447.74 124.51Q448.63 125.49 449.63 126.45Q450.63 127.42 451.62 128.13Q452.62 128.85 453.46 128.85L453.46 128.85Q454.58 128.85 455.81 128.27Q457.03 127.70 458.47 126.33L458.47 126.33" fill="#DCA548"/>
  <path d="M470.05 124.20L470.05 124.20Q471.14 124.09 472.15 123.50Q473.17 122.90 474.06 122.03Q474.95 121.15 475.67 120.10Q476.39 119.05 476.88 118.07L476.88 118.07Q476.70 118.00 476.56 117.90Q476.42 117.79 476.28 117.79L476.28 117.79Q475.13 117.93 474.11 118.63Q473.10 119.33 472.29 120.28Q471.49 121.22 470.91 122.27Q470.33 123.32 470.05 124.20M491.19 132.35L491.19 132.35Q490.42 133.44 489.06 134.94Q487.69 136.45 485.96 138.09Q484.23 139.74 482.27 141.35Q480.31 142.96 478.36 144.23Q476.42 145.51 474.64 146.30Q472.85 147.09 471.49 147.09L471.49 147.09Q471.17 147.09 470.49 146.88Q469.81 146.67 468.91 146.33Q468.02 146.00 467.02 145.58Q466.03 145.16 465.08 144.74Q464.14 144.32 463.37 143.95Q462.60 143.59 462.14 143.31L462.14 143.31Q460.81 142.54 459.69 141.56Q458.57 140.58 457.78 139.37Q457.00 138.16 456.56 136.73Q456.12 135.29 456.12 133.54L456.12 133.54Q456.12 131.30 456.87 128.87Q457.63 126.44 458.92 124.07Q460.22 121.71 462.00 119.59Q463.79 117.48 465.85 115.85Q467.92 114.22 470.17 113.28Q472.43 112.33 474.71 112.33L474.71 112.33Q478.31 112.33 480.18 114.01Q482.06 115.69 482.06 118.98L482.06 118.98Q482.06 120.94 481.37 122.55Q480.69 124.16 479.54 125.51Q478.38 126.86 476.86 127.92Q475.34 128.99 473.67 129.88Q472.01 130.78 470.30 131.49Q468.58 132.21 467.08 132.84L467.08 132.84Q466.52 133.79 466.24 134.56Q465.96 135.33 465.96 136.62L465.96 136.62Q465.96 137.99 466.59 138.77Q467.22 139.56 469.21 139.56L469.21 139.56Q471.21 139.56 473.41 138.49Q475.62 137.43 477.73 135.85Q479.85 134.28 481.78 132.51Q483.70 130.74 485.14 129.31L485.14 129.31Q485.52 128.92 486.17 128.22Q486.82 127.52 487.62 126.84Q488.43 126.16 489.34 125.65Q490.25 125.14 491.16 125.14L491.16 125.14Q491.47 125.14 491.84 125.11Q492.21 125.07 492.52 125.18Q492.84 125.28 493.03 125.58Q493.22 125.88 493.22 126.54L493.22 126.54Q493.22 128.22 492.64 129.67Q492.07 131.13 491.19 132.35" fill="#DCA548"/>
  <path d="M524.20 132.39L524.20 132.39Q521.33 134.63 518.07 135.64Q514.82 136.66 511.21 136.94L511.21 136.94Q511.21 137.22 510.67 138.04Q510.13 138.86 509.25 139.96Q508.38 141.07 507.29 142.29Q506.21 143.52 505.09 144.57L505.09 144.57Q502.99 146.53 500.62 148.15Q498.26 149.78 495.85 151.25L495.85 151.25Q495.29 151.11 494.18 150.74Q493.08 150.38 491.75 149.89Q490.42 149.40 489.02 148.78Q487.62 148.17 486.48 147.54Q485.35 146.91 484.61 146.26Q483.88 145.62 483.88 145.06L483.88 145.06Q483.88 142.92 484.17 140.51Q484.47 138.09 485.00 135.52Q485.52 132.95 486.24 130.32Q486.96 127.70 487.83 125.11L487.83 125.11Q489.83 119.19 492.71 113.43Q495.60 107.68 498.84 102.30Q502.08 96.93 505.33 92.05Q508.59 87.17 511.28 83.00L511.28 83.00Q511.63 83.00 512.21 83.54Q512.79 84.09 513.42 84.86Q514.05 85.63 514.66 86.45Q515.27 87.27 515.69 87.80L515.69 87.80Q515.94 88.11 516.06 88.76Q516.18 89.41 516.18 89.62L516.18 89.62Q514.08 93.89 511.74 98.05Q509.39 102.22 507.05 106.33Q504.70 110.44 502.46 114.50Q500.22 118.56 498.30 122.59L498.30 122.59Q498.75 122.03 499.40 121.69Q500.05 121.36 500.82 121.17Q501.59 120.98 502.37 120.92Q503.16 120.87 503.86 120.87L503.86 120.87Q505.61 120.87 507.29 121.61Q508.97 122.34 510.30 123.44Q511.63 124.55 512.44 125.82Q513.24 127.10 513.28 128.22L513.28 128.22Q515.90 128.50 518.35 127.75Q520.80 127.00 523.08 125.74L523.08 125.74Q523.50 125.49 523.81 125.33Q524.13 125.18 524.42 125.21Q524.72 125.25 524.97 125.56Q525.21 125.88 525.49 126.54L525.49 126.54Q525.74 127.21 525.77 128.05Q525.81 128.89 525.61 129.73Q525.42 130.56 525.07 131.27Q524.72 131.97 524.20 132.39M504.63 135.29L504.63 135.29Q503.79 135.05 502.72 134.47Q501.66 133.89 500.47 133.14Q499.28 132.39 498.02 131.48Q496.76 130.56 495.53 129.66L495.53 129.66Q494.62 131.09 494.11 132.46Q493.61 133.82 493.36 135.19Q493.12 136.55 493.06 137.90Q493.01 139.25 493.01 140.61L493.01 140.61Q493.01 141.00 493.19 141.33Q493.36 141.66 493.78 141.66L493.78 141.66Q495.22 141.66 496.79 141.01Q498.37 140.37 499.84 139.40Q501.31 138.44 502.55 137.32Q503.79 136.20 504.63 135.29" fill="#DCA548"/>
</svg>
