<svg xmlns="http://www.w3.org/2000/svg" viewBox="35.42 -508.28 2464.43 717.85" height="64" role="img" aria-label="BARTOLOME — Parrilla, chelas y café">
  <defs>
    <linearGradient id="flameGrad" x1="0%" y1="0%" x2="35%" y2="100%">
      <stop offset="0%" stop-color="#FF5B1F"/>
      <stop offset="55%" stop-color="#E4180F"/>
      <stop offset="100%" stop-color="#8C0000"/>
    </linearGradient>
    <linearGradient id="coalGrad" x1="20%" y1="0%" x2="80%" y2="100%">
      <stop offset="0%" stop-color="#4B4B4D"/>
      <stop offset="100%" stop-color="#1A1A1B"/>
    </linearGradient>
  </defs>
  <g>
    <path d="M171.18-378.73c-42.68 45.29-52.46 115.85-24.19 174.5 15.1 31.26 37.46 52.94 65.62 63.79 25.65 9.87 40.65 11.9 113.91 15 32.62 1.45 44.71 5.81 51.01 18.29 2.52 5.03 2.52 22.94 0 29.42-4.36 11.23-18.78 18-42.78 20.23-6.48 0.58-19.65 0.58-33.39 0.19l-22.75-0.77-0.29-21.39-0.19-21.39-14.32-0.58c-33.29-1.35-61.75-11.13-86.04-29.81-4.06-3.1-7.55-5.52-7.75-5.32-0.19 0.1 2.03 5.23 4.94 11.32 6.77 14.13 8.42 19.16 9 27.49 0.39 5.52 0.1 7.45-1.45 10.16-2.23 4.06-8.81 7.74-13.84 7.74-11.13 0-17.71-9.87-21.29-31.84-2.9-18.1-3.68-21.2-8.33-35.71-13.94-43.84-41.52-74.72-76.55-85.75-4.45-1.35-8.52-2.52-9-2.52-0.58 0 2.23 2.13 6.19 4.84 7.55 5.03 18.58 15.97 23.81 23.61 4.65 6.77 11.23 21.2 13.93 30.59 5.52 19.07 7.45 38.62 7.46 76.26 0 23.91 0.29 28.74 2.03 37.26 4.94 24.29 16.16 42 32.91 52.17 8.13 4.94 15.87 7.16 32.32 9.2 12.1 1.55 22.94 1.74 99.2 1.74 90.3 0.1 99.4-0.29 114.11-4.36 27.78-7.74 44.04-20.23 55.07-42.1 14.23-28.55 12.29-65.72-4.93-92.62-4.74-7.45-14.81-17.9-21.78-22.55l-5.71-3.78 6.1-7.16c17.23-20.61 22.16-48.1 13.45-75.39-3.39-10.74-8.52-18.97-17.42-27.87-12.1-12.19-28.65-19.94-50.62-23.72-10.26-1.84-15.97-1.94-79.17-1.93l-68.13 0 0 9.19c0 10.45 0.58 10.16-8.91 4.65-12.68-7.36-22.74-22.36-26.52-39.49-3.19-14.32-1.84-38.33 3.1-55.07 1.65-5.71 1.55-5.42 0.49-5.42-0.48 0-4.65 3.97-9.3 8.9z m0.49 103.56c6.29 12.87 19.84 28.36 32.9 37.46 12.68 8.9 29.42 16.55 44.43 20.42 6.39 1.55 25.84 4.84 29.03 4.84 0.77 0 1.06-4.84 1.07-16.16l0-16.07 25.45 0.58c42.39 0.97 49.07 2.9 56.04 16.16 1.84 3.58 2.23 5.81 2.22 13.07 0 7.84-0.29 9.19-2.9 13.84-3.48 6.48-6.87 9.29-15.48 13.35-9.87 4.65-20.42 7.07-36.1 8.33-41.33 3.39-73.65-7.36-98.14-32.42l-6.58-6.68 0 6.19c0 3.48 0.48 8.71 1.06 11.81 0.58 3.1 0.77 5.81 0.48 6.1-0.77 0.87-10.65-8.03-15.19-13.75-9.97-12.39-15.87-25.36-19.16-41.71-2.13-10.84-3.68-30.39-2.42-30.39 0.48 0 1.94 2.23 3.29 5.03z" fill="url(#flameGrad)"/>
    <path d="M63.85-347.37c9.29 15.19 14.23 30.87 15.87 50.43 2.71 32.62 3.77 37.46 10.84 50.61 2.13 3.97 5.61 9.68 7.84 12.59 4.45 5.9 25.36 27.78 27.97 29.13 1.94 1.06 1.84 0.77-2.03-8.23-4.45-10.16-7.55-26.13-10.74-54-0.97-9.39-2.71-21.2-3.78-26.23-4.55-21.78-13.74-37.65-28.55-48.97-5.03-3.97-19.65-12.68-21.1-12.68-0.39 0 1.26 3.29 3.68 7.35z" fill="url(#flameGrad)"/>
  </g>
  <path d="M577.42-101.25L577.42-140.95Q577.42-157.06 573.87-163.67Q570.32-170.29 555.71-170.29Q544.06-170.29 537.54-166.43Q531.03-162.57 531.03-158.60Q531.03-155.95 535.67-150.66Q540.31-145.37 540.31-137.43Q540.31-125.95 532.61-117.68Q524.91-109.41 513.26-109.41Q502.60-109.41 494.90-117.24Q487.20-125.07 487.20-136.32Q487.20-155.73 507.83-169.30Q528.46-182.87 564.99-182.87Q593.22-182.87 612.27-174.92Q631.32-166.98 631.32-139.19L631.32-46.10Q631.32-22.06 643.36-22.06Q646.72-22.06 652.64-26.25L657.97-16.32Q641.19 5.51 619.08 5.51Q595.98 5.51 580.39-21.18Q554.52 5.51 522.93 5.51Q501.61 5.51 489.37-6.95Q477.13-19.41 477.13-37.94Q477.13-96.84 577.42-101.25M577.42-60.88L577.42-89.56Q550.77-88.45 540.31-80.18Q529.84-71.91 529.84-52.50Q529.84-37.50 536.36-28.90Q542.87-20.29 553.14-20.29Q564.79-20.29 571.11-28.90Q577.42-37.50 577.42-60.88M734.38-180.22L741.29-180.22L741.29-131.47L742.08-131.47Q746.81-157.50 757.67-170.18Q768.53-182.87 781.76-182.87Q794.59-182.87 802.69-172.61Q810.78-162.35 810.78-147.35Q810.78-134.56 804.66-126.73Q798.54-118.90 789.85-118.90Q781.17-118.90 774.95-126.18Q768.73-133.45 768.73-142.28Q768.73-153.31 772.18-157.72Q775.64-162.13 775.64-163.45Q775.64-165.88 772.48-165.88Q762.61-165.88 753.63-144.26Q744.64-122.65 744.64-74.12L744.64-13.46L774.06-13.46L774.06 0L670.21 0L670.21-13.46L690.75-13.46L690.75-163.90L670.21-163.90L670.21-177.57L696.47-177.57Q717.40-177.57 727.27-178.90L734.38-180.22M850.86-222.35L904.36-232.72L904.36-177.57L944.24-177.57L944.24-163.90L904.36-163.90L904.36-43.46Q904.36-19.41 917.59-19.41Q929.63-19.41 935.75-43.46L947.99-43.46Q944.44-18.31 932.20-7.61Q919.96 3.09 892.91 3.09Q873.56 3.09 864.38-3.75Q855.20-10.59 853.03-19.85Q850.86-29.12 850.86-43.46L850.86-163.90L828.75-163.90L828.75-177.57L850.86-177.57L850.86-222.35M1052.82 5.51Q1013.14 5.51 989.45-22.72Q965.76-50.96 965.76-88.45Q965.76-126.40 989.84-154.63Q1013.93-182.87 1052.82-182.87Q1092.11-182.87 1116.29-154.96Q1140.48-127.06 1140.48-88.45Q1140.48-50.07 1116.49-22.28Q1092.50 5.51 1052.82 5.51M1052.82-171.62Q1042.36-171.62 1036.04-165.99Q1029.72-160.37 1028.34-148.79Q1026.96-137.20 1026.96-88.45Q1026.96-41.03 1028.24-30.22Q1029.53-19.41 1036.14-12.68Q1042.75-5.96 1054.01-5.96Q1063.09-5.96 1069.90-11.80Q1076.71-17.65 1078.09-32.98Q1079.47-48.31 1079.47-84.93Q1079.47-142.06 1075.53-156.84Q1071.58-171.62 1052.82-171.62M1227.94-300L1234.45-300L1234.45-13.46L1251.04-13.46L1251.04 0L1162.79 0L1162.79-13.46L1180.56-13.46L1180.56-282.35L1162.79-282.35L1162.79-295.81Q1187.66-295.81 1211.95-298.01L1227.94-300M1360.61 5.51Q1320.92 5.51 1297.23-22.72Q1273.54-50.96 1273.54-88.45Q1273.54-126.40 1297.63-154.63Q1321.71-182.87 1360.61-182.87Q1399.89-182.87 1424.08-154.96Q1448.26-127.06 1448.26-88.45Q1448.26-50.07 1424.28-22.28Q1400.29 5.51 1360.61 5.51M1360.61-171.62Q1350.14-171.62 1343.83-165.99Q1337.51-160.37 1336.13-148.79Q1334.74-137.20 1334.74-88.45Q1334.74-41.03 1336.03-30.22Q1337.31-19.41 1343.92-12.68Q1350.54-5.96 1361.79-5.96Q1370.87-5.96 1377.68-11.80Q1384.49-17.65 1385.88-32.98Q1387.26-48.31 1387.26-84.93Q1387.26-142.06 1383.31-156.84Q1379.36-171.62 1360.61-171.62M1533.35-182.87L1541.05-182.87L1541.05-144.92L1541.84-144.92Q1560.79-182.87 1602.45-182.87Q1646.08-182.87 1651.02-142.72Q1672.73-182.87 1708.86-182.87Q1732.55-182.87 1744.10-175.48Q1755.65-168.09 1758.71-156.95Q1761.77-145.81 1761.77-128.38L1761.77-13.46L1784.28-13.46L1784.28 0L1684.97 0L1684.97-13.46L1707.88-13.46L1707.88-133.23Q1707.88-154.63 1703.93-159.48Q1699.98-164.34 1693.07-164.34Q1681.22-164.34 1669.38-152.65Q1657.53-140.95 1654.47-127.17Q1651.41-113.38 1651.41-88.90L1651.41-13.46L1674.31-13.46L1674.31 0L1574.61 0L1574.61-13.46L1597.52-13.46L1597.52-131.91Q1597.52-153.09 1593.37-158.49Q1589.22-163.90 1581.72-163.90Q1567.90-163.90 1554.48-150Q1541.05-136.10 1541.05-97.06L1541.05-13.46L1563.95-13.46L1563.95 0L1464.65 0L1464.65-13.46L1487.16-13.46L1487.16-163.90L1464.65-163.90L1464.65-177.57L1492.49-177.57Q1507.29-177.57 1520.92-180.22L1533.35-182.87M1956.24-99.04L1859.10-99.04L1859.10-70.37Q1859.10-36.62 1864.53-23.71Q1869.96-10.81 1889.51-10.81Q1906.68-10.81 1921.59-23.16Q1936.49-35.51 1944.39-61.54L1956.24-61.54Q1948.93-28.01 1929.19-11.25Q1909.45 5.51 1881.81 5.51Q1844.10 5.51 1821.49-23.38Q1798.89-52.28 1798.89-90Q1798.89-126.18 1821.79-154.52Q1844.69-182.87 1879.04-182.87Q1908.66-182.87 1930.57-162.13Q1952.48-141.40 1956.24-99.04M1859.10-131.47L1859.10-113.38L1901.55-113.38L1901.55-131.91Q1901.55-155.95 1895.73-163.12Q1889.90-170.29 1879.83-170.29Q1870.36-170.29 1864.73-163.90Q1859.10-157.50 1859.10-131.47" fill="#1C1B1A"/>
  <g transform="translate(1283.88 64.31)">
    <path d="M 1006.80 -37.20 L 1066.32 -45.00 L 1114.68 -10.68 L 1110.96 36.12 L 1058.88 51.72 L 1006.80 33.00 L 988.20 -7.56 Z" fill="url(#coalGrad)"/>
    <path d="M 951.00 20.52 L 991.92 -1.32 L 1029.12 17.40 L 1025.40 64.20 L 988.20 89.16 L 954.72 67.32 Z" fill="url(#coalGrad)"/>
    <path d="M 1014.24 36.12 L 1062.60 26.76 L 1099.80 45.48 L 1088.64 89.16 L 1036.56 98.52 L 1003.08 73.56 Z" fill="url(#coalGrad)"/>
    <path d="M 1006.80 -37.20 L 1066.32 -45.00 L 1053.30 -13.80 L 1010.52 -10.68 Z" fill="#5B5B5D" opacity="0.55"/>
    <path d="M 1014.24 36.12 L 1062.60 26.76 L 1055.16 54.84 L 1021.68 61.08 Z" fill="#5B5B5D" opacity="0.55"/>
  </g>
  <g transform="translate(-300 0)">
  <path d="M1208.47 47.28L1209.49 43.45Q1221.85 42.25 1230.64 40.04Q1228.51 46 1226.03 55.64L1219.72 79.60L1227.57 80.11Q1233.03 80.37 1239.46 77.38Q1245.90 74.40 1250.98 66.90Q1256.05 59.39 1256.05 50.69Q1256.05 42.08 1249.87 37.05Q1243.68 32.02 1230.98 32.02Q1216.48 32.02 1202.58 39.22Q1188.68 46.43 1181.14 57.64Q1173.59 68.86 1173.59 79.77Q1173.59 85.14 1175.55 89.11Q1177.51 93.08 1182.54 96.91Q1186.72 99.98 1186.72 102.88Q1186.72 104.76 1185.36 106.04Q1183.99 107.32 1182.12 107.32Q1177.09 107.32 1172.40 100.41Q1167.71 93.50 1167.71 82.93Q1167.71 63.57 1182.54 47.62Q1201.99 26.65 1234.73 26.65Q1247.18 26.65 1255.15 29.89Q1263.13 33.13 1267.09 38.76Q1271.06 44.38 1271.06 50.95Q1271.06 59.31 1265.47 67.37Q1259.89 75.42 1249.01 80.37Q1238.14 85.32 1224.84 85.32Q1222.79 85.32 1218.44 85.06L1211.71 111.58Q1210 118.32 1207.87 124.88Q1214.52 126.50 1219.47 126.50Q1225.69 126.50 1232.85 124.11L1231.83 128.89Q1225.18 130.68 1220.58 130.68Q1216.14 130.68 1207.61 129.74Q1200.79 128.89 1196.53 128.89Q1188.26 128.89 1179.56 130.85L1180.58 126.33Q1189.45 124.88 1192.69 122.15Q1197.30 118.32 1200.19 106.72L1213.07 55.64Q1213.92 52.06 1213.92 50.61Q1213.92 49.24 1212.82 48.18Q1211.71 47.11 1210.17 47.11Q1209.58 47.11 1208.47 47.28M1320.26 59.05L1322.31 55.73L1327.93 54.53L1321.54 76.11Q1317.70 88.98 1314.29 105.78Q1312.41 114.91 1312.41 117.55Q1312.41 120.19 1314.55 120.19Q1315.91 120.19 1318.90 118.40Q1324.18 115.25 1329.04 110.56L1331.77 113.88Q1322.05 122.75 1319.32 124.63Q1313.86 128.38 1308.92 130.17Q1305.68 131.36 1302.61 131.36Q1300.39 131.36 1299.28 130.34Q1298.17 129.32 1298.17 127.36Q1298.17 126.08 1298.86 123.86L1302.27 112.26Q1294.93 121.04 1284.79 127.36Q1278.56 131.28 1273.36 131.28Q1268.41 131.28 1265.77 127.78Q1262.19 123.09 1262.19 115.50Q1262.19 106.46 1267.01 95.38Q1271.82 84.29 1279.93 75.25Q1288.03 66.21 1296.98 61.95Q1303.89 58.71 1314.72 58.71Q1317.45 58.71 1320.26 59.05M1304.65 95.38L1311.73 68.77Q1307.13 67.83 1303.97 67.83Q1296.30 67.83 1290.58 72.06Q1284.87 76.28 1279.97 87.23Q1275.06 98.19 1275.06 109.11Q1275.06 114.91 1277.03 117.46Q1278.99 120.02 1282.14 120.02Q1288.03 120.02 1294.76 113.67Q1301.50 107.32 1304.65 95.38M1357.10 112.35L1353.26 128.89L1340.55 128.89L1346.52 105.95Q1350.87 89.07 1354.11 73.89Q1354.88 70.14 1354.88 69.20Q1354.88 67.15 1353 67.15Q1351.73 67.15 1349.08 68.90Q1346.44 70.65 1339.53 77.56L1336.89 74.57Q1345.07 65.79 1353.22 61.40Q1361.36 57 1365.71 57Q1367.25 57 1368.14 57.73Q1369.04 58.45 1369.04 59.56Q1369.04 60.67 1367.93 65.45L1364.26 80.71Q1372.87 67.15 1383.70 57.52Q1388.91 52.91 1392.40 52.91Q1394.96 52.91 1396.66 54.57Q1398.37 56.24 1398.37 58.45Q1398.37 60.76 1396.71 62.38Q1395.04 64 1388.39 66.21Q1382.08 68.35 1378.12 71.33Q1374.15 74.32 1369.42 80.45Q1364.69 86.59 1362.81 91.16Q1360.94 95.72 1357.10 112.35M1409.46 112.35L1405.62 128.89L1392.91 128.89L1398.88 105.95Q1403.23 89.07 1406.47 73.89Q1407.24 70.14 1407.24 69.20Q1407.24 67.15 1405.36 67.15Q1404.08 67.15 1401.44 68.90Q1398.80 70.65 1391.89 77.56L1389.25 74.57Q1397.43 65.79 1405.58 61.40Q1413.72 57 1418.07 57Q1419.60 57 1420.50 57.73Q1421.39 58.45 1421.39 59.56Q1421.39 60.67 1420.29 65.45L1416.62 80.71Q1425.23 67.15 1436.06 57.52Q1441.26 52.91 1444.76 52.91Q1447.32 52.91 1449.02 54.57Q1450.73 56.24 1450.73 58.45Q1450.73 60.76 1449.07 62.38Q1447.40 64 1440.75 66.21Q1434.44 68.35 1430.48 71.33Q1426.51 74.32 1421.78 80.45Q1417.05 86.59 1415.17 91.16Q1413.29 95.72 1409.46 112.35M1478.53 20.51Q1481.17 20.51 1482.88 22.26Q1484.58 24 1484.58 26.73Q1484.58 30.48 1481.98 33.34Q1479.38 36.20 1476.14 36.20Q1473.58 36.20 1471.88 34.41Q1470.17 32.62 1470.17 29.72Q1470.17 25.88 1472.64 23.19Q1475.12 20.51 1478.53 20.51M1444.93 76.96L1441.18 74.06Q1449.71 64.68 1456.74 60.71Q1463.78 56.75 1468.72 56.75Q1471.45 56.75 1472.90 57.94Q1474.35 59.14 1474.35 61.18Q1474.35 63.66 1468.81 82.16Q1459.77 112.43 1459.77 118.66Q1459.77 119.85 1460.36 120.66Q1460.96 121.47 1461.64 121.47Q1464.37 121.47 1475.63 110.90L1478.95 114.14Q1467.27 125.14 1461.90 128.21Q1456.53 131.28 1453.12 131.28Q1450.13 131.28 1448.38 129.40Q1446.64 127.53 1446.64 124.20Q1446.64 113.54 1459.43 72.10Q1460.02 70.14 1460.02 68.60Q1460.02 66.90 1458.49 66.90Q1456.78 66.90 1454.61 68.26Q1452.43 69.62 1444.93 76.96M1519.54 108.34L1522.44 111.41Q1515.79 118.91 1506.71 125.10Q1497.63 131.28 1491.74 131.28Q1489.10 131.28 1487.40 129.27Q1485.69 127.27 1485.69 123.77Q1485.69 116.95 1490.98 95.46L1500.19 58.03Q1505.22 37.73 1508.63 30.83Q1513.92 20.34 1523.59 14.54Q1533.27 8.74 1544.02 8.74Q1547.68 8.74 1549.77 10.49Q1551.86 12.24 1551.86 14.71Q1551.86 17.44 1549.82 19.19Q1547.77 20.93 1543.85 20.93Q1541.29 20.93 1536.60 20.08Q1532.51 19.40 1529.01 19.40Q1525.51 19.40 1523.72 20.85Q1521.25 22.90 1519.25 29.46Q1517.24 36.03 1512.72 55.38L1504.28 91.11Q1497.97 117.98 1497.97 119.17Q1497.97 121.90 1499.93 121.90Q1501.81 121.90 1505.39 119.68Q1512.47 115.25 1519.54 108.34M1561.41 108.34L1564.31 111.41Q1557.66 118.91 1548.58 125.10Q1539.50 131.28 1533.61 131.28Q1530.97 131.28 1529.27 129.27Q1527.56 127.27 1527.56 123.77Q1527.56 116.95 1532.85 95.46L1542.06 58.03Q1547.09 37.73 1550.50 30.83Q1555.79 20.34 1565.46 14.54Q1575.14 8.74 1585.89 8.74Q1589.55 8.74 1591.64 10.49Q1593.73 12.24 1593.73 14.71Q1593.73 17.44 1591.69 19.19Q1589.64 20.93 1585.72 20.93Q1583.16 20.93 1578.47 20.08Q1574.37 19.40 1570.88 19.40Q1567.38 19.40 1565.59 20.85Q1563.12 22.90 1561.11 29.46Q1559.11 36.03 1554.59 55.38L1546.15 91.11Q1539.84 117.98 1539.84 119.17Q1539.84 121.90 1541.80 121.90Q1543.68 121.90 1547.26 119.68Q1554.34 115.25 1561.41 108.34M1623.92 59.05L1625.97 55.73L1631.59 54.53L1625.20 76.11Q1621.36 88.98 1617.95 105.78Q1616.07 114.91 1616.07 117.55Q1616.07 120.19 1618.21 120.19Q1619.57 120.19 1622.55 118.40Q1627.84 115.25 1632.70 110.56L1635.43 113.88Q1625.71 122.75 1622.98 124.63Q1617.52 128.38 1612.58 130.17Q1609.34 131.36 1606.27 131.36Q1604.05 131.36 1602.94 130.34Q1601.83 129.32 1601.83 127.36Q1601.83 126.08 1602.52 123.86L1605.93 112.26Q1598.59 121.04 1588.44 127.36Q1582.22 131.28 1577.02 131.28Q1572.07 131.28 1569.43 127.78Q1565.85 123.09 1565.85 115.50Q1565.85 106.46 1570.67 95.38Q1575.48 84.29 1583.58 75.25Q1591.69 66.21 1600.64 61.95Q1607.55 58.71 1618.38 58.71Q1621.10 58.71 1623.92 59.05M1608.31 95.38L1615.39 68.77Q1610.79 67.83 1607.63 67.83Q1599.96 67.83 1594.24 72.06Q1588.53 76.28 1583.63 87.23Q1578.72 98.19 1578.72 109.11Q1578.72 114.91 1580.69 117.46Q1582.65 120.02 1585.80 120.02Q1591.69 120.02 1598.42 113.67Q1605.16 107.32 1608.31 95.38M1631.08 155.41L1629.46 149.87Q1637.22 143.90 1641.40 138.10Q1644.13 134.26 1644.13 131.79Q1644.13 129.32 1642.08 125.48Q1640.04 121.56 1640.04 119Q1640.04 115.76 1642.34 113.37Q1644.64 110.98 1647.80 110.98Q1651.29 110.98 1653.81 113.84Q1656.32 116.70 1656.32 120.70Q1656.32 125.31 1653.76 131.15Q1651.21 136.99 1646 142.53Q1638.93 150.21 1631.08 155.41M1764.79 110.39L1766.58 115.33Q1746.29 131.28 1732.30 131.28Q1724.88 131.28 1721.51 125.99Q1718.15 120.70 1718.15 112.60Q1718.15 99.13 1725.31 84.89Q1732.47 70.65 1742.70 63.06Q1750.72 57.18 1760.78 57.18Q1767.09 57.18 1770.33 59.56Q1773.57 61.95 1773.57 65.36Q1773.57 68 1771.87 69.67Q1770.16 71.33 1767.09 71.33Q1764.11 71.33 1759.42 68.60Q1754.56 65.70 1751.32 65.70Q1747.14 65.70 1743 69.50Q1738.87 73.29 1735.12 84.21Q1731.36 95.12 1731.36 106.12Q1731.36 114.22 1734.52 118.66Q1736.82 122.07 1741 122.07Q1750.98 122.07 1764.79 110.39M1845.80 110.81L1848.02 113.97Q1840.17 122.67 1831.90 127.78Q1826.27 131.28 1822.61 131.28Q1819.62 131.28 1817.79 128.89Q1815.95 126.50 1815.95 121.47Q1815.95 118.06 1817.36 111.54Q1818.77 105.01 1825.33 83.52Q1828.23 72.95 1828.23 71.16Q1828.23 68.26 1825.33 68.26Q1821.75 68.26 1816.38 71.84Q1808.88 76.79 1803.08 84.46Q1799.41 89.41 1797.19 99.13L1790.37 128.80L1777.67 128.80Q1781.76 113.88 1783.98 104.42L1796.51 49.67Q1799.92 34.58 1805.51 26.43Q1811.09 18.29 1820.09 13.43Q1829.09 8.57 1837.87 8.57Q1841.54 8.57 1843.67 10.36Q1845.80 12.15 1845.80 14.88Q1845.80 17.18 1843.71 18.93Q1841.62 20.68 1838.04 20.68Q1835.99 20.68 1832.75 20.25Q1825.42 19.23 1822.61 19.23Q1818.68 19.23 1816.21 22.38Q1813.74 25.54 1811.09 37.22L1801.54 79.35Q1811.69 68.69 1823.63 61.35Q1830.62 57 1834.89 57Q1838.21 57 1840.09 59.01Q1841.96 61.01 1841.96 64.59Q1841.96 67.49 1841.28 70.39Q1840.17 75.42 1836.08 88.64Q1830.54 106.89 1829.56 111.32Q1828.57 115.76 1828.57 119.25Q1828.57 120.62 1829.04 121.30Q1829.51 121.98 1830.45 121.98Q1832.50 121.98 1838.13 117.12Q1841.28 114.48 1845.80 110.81M1898.84 107.49L1901.65 111.24Q1880.76 131.11 1865.84 131.11Q1859.78 131.11 1856.59 127.01Q1853.39 122.92 1853.39 113.88Q1853.39 95.63 1864.48 77.56Q1876.92 57 1894.24 57Q1900.29 57 1903.49 60.03Q1906.69 63.06 1906.69 68.35Q1906.69 73.89 1902.85 79.26Q1899.01 84.63 1889.12 90.43Q1884.17 93.25 1867.97 100.58Q1867.20 105.18 1867.20 109.36Q1867.20 115.42 1869.12 117.80Q1871.04 120.19 1874.71 120.19Q1878.20 120.19 1882.38 118.23Q1888.01 115.59 1898.84 107.49M1868.99 95.12Q1882.72 88.98 1889.63 81.90Q1894.32 76.96 1894.32 72.10Q1894.32 68.43 1892.40 66.26Q1890.48 64.08 1887.41 64.08Q1884.26 64.08 1881.27 66.47Q1877.27 69.62 1874.54 76.02Q1870.61 85.40 1868.99 95.12M1948.98 108.34L1951.88 111.41Q1945.23 118.91 1936.15 125.10Q1927.07 131.28 1921.18 131.28Q1918.54 131.28 1916.83 129.27Q1915.13 127.27 1915.13 123.77Q1915.13 116.95 1920.41 95.46L1929.62 58.03Q1934.66 37.73 1938.07 30.83Q1943.35 20.34 1953.03 14.54Q1962.71 8.74 1973.45 8.74Q1977.12 8.74 1979.21 10.49Q1981.30 12.24 1981.30 14.71Q1981.30 17.44 1979.25 19.19Q1977.21 20.93 1973.28 20.93Q1970.73 20.93 1966.04 20.08Q1961.94 19.40 1958.45 19.40Q1954.95 19.40 1953.16 20.85Q1950.69 22.90 1948.68 29.46Q1946.68 36.03 1942.16 55.38L1933.72 91.11Q1927.41 117.98 1927.41 119.17Q1927.41 121.90 1929.37 121.90Q1931.24 121.90 1934.83 119.68Q1941.90 115.25 1948.98 108.34M2011.49 59.05L2013.53 55.73L2019.16 54.53L2012.77 76.11Q2008.93 88.98 2005.52 105.78Q2003.64 114.91 2003.64 117.55Q2003.64 120.19 2005.77 120.19Q2007.14 120.19 2010.12 118.40Q2015.41 115.25 2020.27 110.56L2023 113.88Q2013.28 122.75 2010.55 124.63Q2005.09 128.38 2000.15 130.17Q1996.90 131.36 1993.83 131.36Q1991.62 131.36 1990.51 130.34Q1989.40 129.32 1989.40 127.36Q1989.40 126.08 1990.08 123.86L1993.49 112.26Q1986.16 121.04 1976.01 127.36Q1969.79 131.28 1964.59 131.28Q1959.64 131.28 1957 127.78Q1953.42 123.09 1953.42 115.50Q1953.42 106.46 1958.23 95.38Q1963.05 84.29 1971.15 75.25Q1979.25 66.21 1988.21 61.95Q1995.11 58.71 2005.94 58.71Q2008.67 58.71 2011.49 59.05M1995.88 95.38L2002.96 68.77Q1998.35 67.83 1995.20 67.83Q1987.52 67.83 1981.81 72.06Q1976.10 76.28 1971.19 87.23Q1966.29 98.19 1966.29 109.11Q1966.29 114.91 1968.25 117.46Q1970.21 120.02 1973.37 120.02Q1979.25 120.02 1985.99 113.67Q1992.73 107.32 1995.88 95.38M2066.15 57.09Q2073.74 57.09 2077.87 60.03Q2082.01 62.97 2082.01 66.81Q2082.01 69.11 2080.26 70.82Q2078.51 72.52 2076.04 72.52Q2074.42 72.52 2073.22 71.80Q2072.03 71.07 2069.81 68.18Q2065.64 62.63 2061.54 62.63Q2058.05 62.63 2055.36 65.32Q2052.67 68 2052.67 72.01Q2052.67 75.51 2054.38 78.79Q2056.08 82.07 2062.99 89.41Q2072.46 99.47 2072.46 108.51Q2072.46 117.55 2064.78 124.33Q2057.11 131.11 2045 131.11Q2034.85 131.11 2029.91 126.97Q2024.96 122.84 2024.96 116.78Q2024.96 113.80 2026.84 111.84Q2028.71 109.87 2031.44 109.87Q2033.83 109.87 2035.53 111.45Q2037.24 113.03 2037.24 115.16Q2037.24 116.01 2037.07 117.38Q2036.98 118.49 2036.98 119.25Q2036.98 122.07 2039.37 124.03Q2041.67 125.99 2045.68 125.99Q2050.29 125.99 2053.78 124.41Q2057.28 122.84 2059.24 119.64Q2061.20 116.44 2061.20 113.28Q2061.20 110.22 2059.37 107.15Q2057.53 104.08 2051.14 97Q2042.27 87.11 2042.27 77.98Q2042.27 69.62 2049.01 63.36Q2055.74 57.09 2066.15 57.09M2122.68 74.49L2119.95 70.48L2126.26 66.21Q2135.47 59.90 2139.23 58.11Q2141.36 57.09 2143.15 57.09Q2144.94 57.09 2146.56 59.14Q2154.06 68.60 2159.18 84.68Q2164.30 100.75 2164.30 115.84Q2164.30 117.80 2164.13 121.81Q2178.54 95.29 2178.54 79.69Q2178.54 76.45 2177.09 71.07Q2175.55 65.11 2175.55 62.55Q2175.55 60.07 2177.13 58.45Q2178.71 56.83 2181.10 56.83Q2184.08 56.83 2185.91 59.14Q2187.75 61.44 2187.75 65.70Q2187.75 76.70 2182.72 93.12Q2177.68 109.53 2166.90 128.42Q2156.11 147.31 2147.20 156.48Q2138.29 165.64 2129.97 169.61Q2121.66 173.57 2114.24 173.57Q2108.61 173.57 2105.76 171.48Q2102.90 169.39 2102.90 166.50Q2102.90 163.94 2105.12 162.10Q2107.33 160.27 2111.09 160.27Q2113.99 160.27 2119.02 161.38Q2124.39 162.57 2126.35 162.57Q2131.55 162.57 2137.35 158.22Q2145.28 152.25 2149.93 143.98Q2154.58 135.71 2154.58 127.27Q2154.58 115.42 2151.12 98.79Q2147.67 82.16 2141.36 73.38Q2138.20 68.86 2134.62 68.86Q2130.44 68.86 2122.68 74.49M2277.97 110.39L2279.76 115.33Q2259.46 131.28 2245.48 131.28Q2238.06 131.28 2234.69 125.99Q2231.32 120.70 2231.32 112.60Q2231.32 99.13 2238.48 84.89Q2245.65 70.65 2255.88 63.06Q2263.90 57.18 2273.96 57.18Q2280.27 57.18 2283.51 59.56Q2286.75 61.95 2286.75 65.36Q2286.75 68 2285.04 69.67Q2283.34 71.33 2280.27 71.33Q2277.28 71.33 2272.59 68.60Q2267.73 65.70 2264.49 65.70Q2260.31 65.70 2256.18 69.50Q2252.04 73.29 2248.29 84.21Q2244.54 95.12 2244.54 106.12Q2244.54 114.22 2247.69 118.66Q2250 122.07 2254.17 122.07Q2264.15 122.07 2277.97 110.39M2346.61 59.05L2348.66 55.73L2354.29 54.53L2347.89 76.11Q2344.05 88.98 2340.64 105.78Q2338.77 114.91 2338.77 117.55Q2338.77 120.19 2340.90 120.19Q2342.26 120.19 2345.25 118.40Q2350.53 115.25 2355.39 110.56L2358.12 113.88Q2348.40 122.75 2345.67 124.63Q2340.22 128.38 2335.27 130.17Q2332.03 131.36 2328.96 131.36Q2326.74 131.36 2325.63 130.34Q2324.53 129.32 2324.53 127.36Q2324.53 126.08 2325.21 123.86L2328.62 112.26Q2321.28 121.04 2311.14 127.36Q2304.91 131.28 2299.71 131.28Q2294.76 131.28 2292.12 127.78Q2288.54 123.09 2288.54 115.50Q2288.54 106.46 2293.36 95.38Q2298.18 84.29 2306.28 75.25Q2314.38 66.21 2323.33 61.95Q2330.24 58.71 2341.07 58.71Q2343.80 58.71 2346.61 59.05M2331.01 95.38L2338.08 68.77Q2333.48 67.83 2330.32 67.83Q2322.65 67.83 2316.94 72.06Q2311.22 76.28 2306.32 87.23Q2301.42 98.19 2301.42 109.11Q2301.42 114.91 2303.38 117.46Q2305.34 120.02 2308.49 120.02Q2314.38 120.02 2321.11 113.67Q2327.85 107.32 2331.01 95.38M2365.20 68.77L2366.74 62.72L2387.12 62.72Q2392.15 41.40 2398.63 31Q2405.11 20.59 2415.51 14.58Q2425.92 8.57 2435.12 8.57Q2440.33 8.57 2442.97 10.62Q2445.61 12.66 2445.61 15.48Q2445.61 18.03 2443.82 19.74Q2442.03 21.45 2439.13 21.45Q2436.15 21.45 2427.88 19.65Q2423.78 18.80 2421.48 18.80Q2415.85 18.80 2411.33 25.75Q2406.81 32.70 2404.09 44.55L2399.82 62.72L2422.33 62.72L2420.97 68.77L2398.20 68.77L2384.73 123.18Q2378.50 147.99 2364.82 160.78Q2351.13 173.57 2335.10 173.57Q2329.73 173.57 2326.96 171.48Q2324.18 169.39 2324.18 166.33Q2324.18 163.68 2326.10 162.10Q2328.02 160.53 2331.60 160.53Q2333.39 160.53 2336.89 160.95Q2342.86 161.72 2348.32 161.72Q2356.76 161.72 2360.60 157.76Q2364.43 153.79 2368.27 138.36L2385.58 68.77L2365.20 68.77M2464.37 107.49L2467.19 111.24Q2446.30 131.11 2431.37 131.11Q2425.32 131.11 2422.12 127.01Q2418.92 122.92 2418.92 113.88Q2418.92 95.63 2430.01 77.56Q2442.46 57 2459.77 57Q2465.82 57 2469.02 60.03Q2472.22 63.06 2472.22 68.35Q2472.22 73.89 2468.38 79.26Q2464.54 84.63 2454.65 90.43Q2449.71 93.25 2433.50 100.58Q2432.74 105.18 2432.74 109.36Q2432.74 115.42 2434.66 117.80Q2436.57 120.19 2440.24 120.19Q2443.74 120.19 2447.92 118.23Q2453.54 115.59 2464.37 107.49M2434.53 95.12Q2448.26 88.98 2455.16 81.90Q2459.85 76.96 2459.85 72.10Q2459.85 68.43 2457.94 66.26Q2456.02 64.08 2452.95 64.08Q2449.79 64.08 2446.81 66.47Q2442.80 69.62 2440.07 76.02Q2436.15 85.40 2434.53 95.12M2447.92 46.77L2465.65 22.04L2481.85 22.04L2452.95 46.77" fill="#1C1B1A"/>
  </g>
</svg>
