<?xml version="1.0" encoding="UTF-8"?>
<!-- Favicon derivado de public/icons/@Poky.svg, recoloreado a la manera de
     SelloPoky.tsx (tokens sello-trazo y sello-corazon en tokens.css).
     El favicon se sirve como documento aislado (no hereda variables CSS de
     la página), así que los hex de marca van embebidos aquí directamente y
     se conmutan vía prefers-color-scheme, que es la única señal de tema
     disponible para un link de icono: no puede leer el toggle manual
     (localStorage/.dark) de la app, solo el tema del sistema/navegador. -->
<svg xmlns="http://www.w3.org/2000/svg" viewBox="0 0 1024 1024">
  <style>
    .trazo { fill: #200F7F; }
    .corazon { fill: #BEBEFF; }
    @media (prefers-color-scheme: dark) {
      .trazo { fill: #BEBEFF; }
      .corazon { fill: #758BFD; }
    }
  </style>
  <g transform="translate(0,1024) scale(0.1,-0.1)" stroke="none">
    <path
      class="trazo"
      d="M 4675.25 8249.72 C 3782.42 6940.53 3512 6558.5 3484.1 6558.5 C 3466.93 6558.5 3378.93 6588.55 3288.79 6622.88 C 3198.65 6659.37 2853.11 6792.44 2520.44 6916.92 C 1219.84 7408.4 629.632 7625.17 623.192 7612.29 C 618.892 7597.27 1041.7 6073.45 1209.1 5506.85 C 1249.88 5371.64 1428.02 4740.65 1608.3 4105.37 C 1932.38 2965.73 1936.67 2950.7 1975.31 3000.07 C 2033.25 3075.18 2808.04 4178.34 3097.78 4599 C 4385.51 6461.92 5070.15 7438.45 5085.18 7434.16 C 5093.76 7429.86 5196.78 7292.51 5310.53 7127.25 C 5729.04 6522.01 5877.13 6307.39 6800.01 4981.03 C 7006.05 4686.99 7246.42 4339.31 7336.56 4208.39 C 7737.87 3628.91 8134.97 3066.6 8180.07 3008.65 L 8229.37 2946.41 L 8276.57 3105.23 C 8300.17 3193.23 8476.17 3809.19 8665.07 4476.67 C 8853.97 5144.14 9128.67 6116.38 9276.77 6640.06 C 9424.87 7161.59 9547.17 7599.42 9547.17 7610.15 C 9547.17 7635.9 9602.97 7655.22 7722.87 6940.53 C 7190.62 6736.63 6701.28 6558.5 6679.82 6558.5 C 6658.36 6558.5 6587.53 6659.37 5857.82 7717.46 C 5675.39 7983.59 5462.91 8292.64 5385.65 8404.23 C 5308.39 8518.03 5209.66 8659.63 5168.88 8721.93 C 5128.1 8782.03 5089.47 8833.53 5083.03 8833.53 C 5076.59 8831.33 4894.16 8569.53 4675.25 8249.72 Z M 2389.53 6129.25 C 2850.96 5953.27 3014.08 5886.73 3024.81 5869.56 C 3033.39 5858.83 2739.36 5427.44 2370.21 4908.06 C 2250.02 4736.36 2241.44 4729.92 2224.27 4779.28 C 2198.51 4845.82 1810.05 6208.66 1788.58 6296.66 L 1773.56 6365.34 L 1889.46 6320.27 C 1951.7 6296.66 2177.05 6208.66 2389.53 6129.25 Z M 8197.17 5642.06 C 8092.07 5266.48 7993.27 4914.49 7978.27 4856.55 C 7965.37 4800.74 7946.07 4749.24 7935.37 4744.94 C 7926.77 4738.5 7851.67 4828.65 7770.07 4942.4 C 7422.41 5431.73 7145.55 5841.66 7143.4 5865.27 C 7143.4 5878.15 7233.54 5923.22 7343 5966.14 C 8029.77 6230.13 8377.47 6356.75 8383.87 6341.73 C 8388.17 6331 8304.47 6015.5 8197.17 5642.06 Z"
    />
    <path
      class="corazon"
      d="M 4868.41 5086.19 C 4821.19 5066.88 4351.17 4614.02 3584.97 3847.82 C 2265.05 2527.9 2301.53 2572.97 2305.82 2319.71 C 2307.97 1999.93 2569.81 1768.14 2885.3 1800.33 C 2947.54 1806.77 3029.1 1828.23 3067.73 1847.55 C 3108.51 1866.86 3576.39 2317.57 4108.65 2849.83 L 5076.59 3815.63 L 6050.98 2847.69 C 6589.68 2311.13 7059.7 1864.72 7100.48 1843.25 C 7349.44 1725.21 7690.67 1841.11 7810.87 2087.92 C 7879.57 2227.43 7881.67 2452.78 7815.17 2577.26 C 7748.67 2701.74 5419.99 5017.51 5304.09 5075.46 C 5194.64 5129.12 4982.16 5135.56 4868.41 5086.19 Z"
    />
  </g>
</svg>
